<svg xmlns="http://www.w3.org/2000/svg" width="1280" height="763" viewBox="0 0 1280 763" fill="none">
<g clip-path="url(#clip0_116_2709)">
<rect width="1280" height="763" fill="black"/>
<rect width="1278" height="693" transform="matrix(1 0 0 -1 1.99609 763)" fill="url(#paint0_linear_116_2709)"/>
<path d="M349.454 439.282C159.75 435.258 50.746 348.394 0 322.193V659.156H1280V439.282C1207.11 392.764 1111.76 344.922 960.499 335.968C794.758 326.158 735.825 360.798 674.945 374.645C614.066 388.492 484.665 442.151 349.454 439.282Z" fill="url(#paint1_linear_116_2709)"/>
<path d="M1672 -647.5C1672 -112.06 1135.19 322 473 322C-189.189 322 -726 -112.06 -726 -647.5C-726 -1047.9 -425.818 -1391.61 2.5 -1539.51C146.958 -1589.39 305.991 -1617 473 -1617C1135.19 -1617 1672 -1182.94 1672 -647.5Z" fill="black"/>
</g>
<defs>
<linearGradient id="paint0_linear_116_2709" x1="612.543" y1="83.1064" x2="607.319" y2="505.294" gradientUnits="userSpaceOnUse">
<stop/>
<stop offset="0.489583" stop-color="#5B4A7D"/>
<stop offset="1" stop-color="#FF98FF"/>
</linearGradient>
<linearGradient id="paint1_linear_116_2709" x1="640" y1="779.954" x2="640" y2="343.385" gradientUnits="userSpaceOnUse">
<stop/>
<stop offset="1" stop-opacity="0.1"/>
</linearGradient>
<clipPath id="clip0_116_2709">
<rect width="1280" height="763" fill="white"/>
</clipPath>
</defs>
</svg>