<svg width="56" height="55" viewBox="0 0 56 55" fill="none" xmlns="http://www.w3.org/2000/svg">
<path fill-rule="evenodd" clip-rule="evenodd" d="M27.9 0.5C12.4852 0.5 0 12.9852 0 28.4C0 40.7457 7.98637 51.1734 19.0766 54.8701C20.4716 55.1142 20.9947 54.2772 20.9947 53.5449C20.9947 52.8822 20.9599 50.6851 20.9599 48.3485C13.95 49.6389 12.1365 46.6396 11.5785 45.0702C11.2646 44.2681 9.9045 41.792 8.71875 41.1294C7.74225 40.6062 6.34725 39.3159 8.68387 39.281C10.881 39.2461 12.4504 41.3037 12.9735 42.1407C15.4845 46.3606 19.4951 45.1749 21.0994 44.4425C21.3435 42.629 22.0759 41.4084 22.878 40.7109C16.6702 40.0134 10.1835 37.607 10.1835 26.9352C10.1835 23.9011 11.2646 21.3901 13.0432 19.4371C12.7642 18.7396 11.7877 15.8799 13.3222 12.0436C13.3222 12.0436 15.6589 11.3113 20.9947 14.9034C23.2267 14.2756 25.5983 13.9617 27.9698 13.9617C30.3413 13.9617 32.7128 14.2756 34.9448 14.9034C40.2806 11.2764 42.6173 12.0436 42.6173 12.0436C44.1518 15.8799 43.1753 18.7396 42.8963 19.4371C44.6749 21.3901 45.756 23.8662 45.756 26.9352C45.756 37.6419 39.2344 40.0134 33.0266 40.7109C34.038 41.5827 34.9099 43.2568 34.9099 45.8724C34.9099 49.604 34.875 52.6032 34.875 53.5449C34.875 54.2772 35.3981 55.1491 36.7931 54.8701C42.3318 53.0003 47.1446 49.4407 50.5542 44.6923C53.9638 39.9439 55.7985 34.2458 55.8 28.4C55.8 12.9852 43.3147 0.5 27.9 0.5Z" fill="white"/>
</svg>
